<svg id="Layer_1" data-name="Layer 1" xmlns="http://www.w3.org/2000/svg" viewBox="0 0 622.44 329.55"><defs><style>.cls-1{fill:none;}.cls-2,.cls-6{fill:#0add18;}.cls-3{fill:#ffb41d;}.cls-11,.cls-12,.cls-4,.cls-9{fill:#0e079e;}.cls-5{fill:#fff;}.cls-11,.cls-6,.cls-9{font-size:62.74px;}.cls-11,.cls-12,.cls-6,.cls-9{font-family:Montserrat-Bold, Montserrat;font-weight:700;}.cls-6{letter-spacing:-0.02em;}.cls-7{letter-spacing:-0.01em;}.cls-8{letter-spacing:0em;}.cls-9{letter-spacing:-0.01em;}.cls-10{letter-spacing:0em;}.cls-12{font-size:40.08px;}.cls-13{letter-spacing:-0.01em;}.cls-14{letter-spacing:-0.07em;}</style></defs><title>accent-group-logo</title><path class="cls-1" d="M270.49,428.09a108,108,0,0,0-55.4-29.67v84.75h85.1A108,108,0,0,0,270.49,428.09Z" transform="translate(-171.85 -353.12)"/><path class="cls-1" d="M302.37,528.47l-.28.06h0a108.87,108.87,0,0,0-84.82,84.7h85.1V526.38h0Z" transform="translate(-171.85 -353.12)"/><path class="cls-2" d="M302.37,398.9V613.23h-85.1a108.87,108.87,0,0,1,84.82-84.7l-.33-2.15h-84.1l-1.21,1.19A151.53,151.53,0,0,0,171.88,634.8l0,21.64H345.21V526.38h0v-1.5l0-20.1V398.55h.37v-.06h85.1A109.12,109.12,0,0,1,363,478.23v4.94h69.45a151.33,151.33,0,0,0,43.6-106.26l0-21.63H302.37Z" transform="translate(-171.85 -353.12)"/><path class="cls-3" d="M302.37,528.47v-2.09h-.61l.33,2.15h0Z" transform="translate(-171.85 -353.12)"/><path class="cls-4" d="M301.76,526.38h.61V398.9c-.45-.47-.9-.92-1.36-1.38a151.41,151.41,0,0,0-107.3-44.4H171.88V526.38H301.76Zm-86.67-43.21V398.42a108.82,108.82,0,0,1,85.1,84.75Z" transform="translate(-171.85 -353.12)"/><path class="cls-4" d="M363,526.38H430.7v84.75A109.15,109.15,0,0,1,363,566.84V627.6a151.64,151.64,0,0,0,89.08,28.84H473.9V483.17H363Z" transform="translate(-171.85 -353.12)"/><polygon class="cls-5" points="173.45 303.32 173.73 303.32 173.73 173.26 173.77 173.26 173.76 171.76 173.73 151.66 173.73 45.43 173.45 45.43 173.45 303.32"/><text class="cls-6" transform="translate(324.9 152.74)">A<tspan class="cls-7" x="47.31" y="0">C</tspan><tspan class="cls-8" x="89.97" y="0">CENT</tspan></text><text class="cls-9" transform="translate(324.58 209.52)">C<tspan class="cls-10" x="42.66" y="0">OUNCIL</tspan></text><text class="cls-11" transform="translate(324.58 301.19)">GROUP</text><text class="cls-12" transform="translate(324.58 249.13)">EDU<tspan class="cls-13" x="87.78" y="0">C</tspan><tspan class="cls-14" x="115.2" y="0">A</tspan><tspan x="143.18" y="0">TIONAL</tspan></text></svg>