<svg id="Layer_1" data-name="Layer 1" xmlns="http://www.w3.org/2000/svg" viewBox="0 0 530.88 439.81"><defs><style>.cls-1,.cls-3,.cls-5{fill:#050577;}.cls-1,.cls-2{fill-rule:evenodd;}.cls-2{fill:red;}.cls-3{font-size:135.67px;}.cls-3,.cls-5{font-family:Montserrat-SemiBold, Montserrat;font-weight:600;}.cls-4{letter-spacing:-0.02em;}.cls-5{font-size:115.44px;letter-spacing:-0.01em;}.cls-6{letter-spacing:0em;}</style></defs><title>bridge-council-logo</title><path class="cls-1" d="M764.16,479.45a254.95,254.95,0,0,0-458,0,261.31,261.31,0,0,1,495.73,0Z" transform="translate(-281.93 -300.89)"/><path class="cls-2" d="M658.42,479.45c-25.81-41.13-65.7-74-112.57-90.46-72.45-25.39-147.19-6.37-189.09,48.12,37.73-68.35,120.42-96.91,202.52-69.94C616,385.81,662.93,427.84,688.84,479.45Z" transform="translate(-281.93 -300.89)"/><path class="cls-1" d="M554,479.45a126.44,126.44,0,0,0-148.65-61.7,122.2,122.2,0,0,1,170.92,61.7Z" transform="translate(-281.93 -300.89)"/><text class="cls-3" transform="translate(0 292.5)">BRI<tspan class="cls-4" x="237.28" y="0">D</tspan><tspan x="339.17" y="0">GE</tspan></text><text class="cls-5" transform="translate(0 389.47)">C<tspan class="cls-6" x="78.61" y="0">OUNCIL</tspan></text></svg>